<?xml version="1.0" standalone="no"?><!DOCTYPE svg PUBLIC "-//W3C//DTD SVG 1.1//EN" "http://www.w3.org/Graphics/SVG/1.1/DTD/svg11.dtd"><svg t="1625040400503" class="icon" viewBox="0 0 1024 1024" version="1.1" xmlns="http://www.w3.org/2000/svg" p-id="3018" xmlns:xlink="http://www.w3.org/1999/xlink" width="128" height="128"><defs><style type="text/css"></style></defs><path d="M208 260c9.096 0 17.299-3.802 23.126-9.895l0.022 0.022C301.243 174.985 401.134 128 512 128s210.757 46.985 280.852 122.127l0.023-0.022C798.701 256.198 806.904 260 816 260c17.673 0 32-14.327 32-32 0-8.902-3.638-16.952-9.504-22.753C756.779 118.304 640.734 64 512 64c-128.734 0-244.779 54.304-326.496 141.248-5.867 5.8-9.504 13.85-9.504 22.752 0 17.673 14.327 32 32 32z" p-id="3019" fill="#f4ea2a"></path><path d="M512 192c-92.429 0-175.686 39.205-234.102 101.872C271.803 299.698 268 307.902 268 317c0 17.673 14.327 32 32 32 8.997 0 17.12-3.718 22.934-9.695l0.051 0.049C369.796 288.134 437.143 256 512 256s142.204 32.134 189.015 83.355l0.051-0.049C706.88 345.282 715.003 349 724 349c17.673 0 32-14.327 32-32 0-9.098-3.803-17.302-9.898-23.128C687.686 231.205 604.429 192 512 192z" p-id="3020" fill="#f4ea2a"></path><path d="M831.5 512.5H543.987c0.003-0.167 0.013-0.332 0.013-0.5V352c0-17.6-14.4-32-32-32s-32 14.4-32 32v160c0 0.168 0.01 0.333 0.013 0.5H191.5c-70.4 0-128 57.6-128 128v192c0 70.4 57.6 128 128 128h640c70.4 0 128-57.6 128-128v-192c0-70.4-57.6-128-128-128zM896 832c0 35.2-28.8 64-64 64H192c-35.2 0-64-28.8-64-64V640c0-35.2 28.8-64 64-64h640c35.2 0 64 28.8 64 64v192z" p-id="3021" fill="#f4ea2a"></path><path d="M224 672m-32 0a32 32 0 1 0 64 0 32 32 0 1 0-64 0Z" p-id="3022" fill="#f4ea2a"></path><path d="M352 672m-32 0a32 32 0 1 0 64 0 32 32 0 1 0-64 0Z" p-id="3023" fill="#f4ea2a"></path><path d="M480 672m-32 0a32 32 0 1 0 64 0 32 32 0 1 0-64 0Z" p-id="3024" fill="#f4ea2a"></path><path d="M800 768H672c-17.6 0-32 14.4-32 32s14.4 32 32 32h128c17.6 0 32-14.4 32-32s-14.4-32-32-32z" p-id="3025" fill="#f4ea2a"></path></svg>