<?xml version="1.0" standalone="no"?><!DOCTYPE svg PUBLIC "-//W3C//DTD SVG 1.1//EN" "http://www.w3.org/Graphics/SVG/1.1/DTD/svg11.dtd"><svg t="1626514079490" class="icon" viewBox="0 0 1024 1024" version="1.1" xmlns="http://www.w3.org/2000/svg" p-id="19574" xmlns:xlink="http://www.w3.org/1999/xlink" width="48" height="48"><defs><style type="text/css"></style></defs><path d="M115.674074 345.125926c13.274074-45.511111 94.814815-41.718519 137.481482-43.614815 51.2-1.896296 106.192593 0 162.133333 3.792593 109.037037 6.637037 192.474074 4.740741 255.051852 2.844444l-9.481482-33.185185h14.222222c15.17037 9.481481 23.703704 20.859259 30.340741 32.237037 60.681481-1.896296 100.503704-2.844444 129.896297 4.740741 99.555556 27.496296 99.555556 331.851852 0 360.296296-29.392593 8.533333-71.111111 6.637037-133.688889 4.740741-5.688889 12.325926-15.17037 23.703704-31.288889 34.133333h-14.222222l9.481481-35.081481c-62.577778-1.896296-144.118519-2.844444-251.259259 3.792592-54.992593 2.844444-109.037037 4.740741-160.237037 2.844445-42.666667-0.948148-125.155556 2.844444-137.481482-43.614815-36.977778-126.103704-36.977778-167.822222-0.948148-293.925926z m699.733333-18.962963c25.6 22.755556 52.148148 49.303704 77.748149 83.437037-6.637037-29.392593-17.066667-54.992593-36.02963-73.955556-13.274074-5.688889-27.496296-8.533333-41.718519-9.481481z m-527.17037 73.007407c-27.496296-16.118519-53.096296-31.288889-76.8-46.459259-36.02963 67.318519-36.02963 214.281481 0 281.6 23.703704-15.17037 49.303704-30.340741 76.8-46.459259-11.377778-51.2-11.377778-138.42963 0-188.681482zM145.066667 658.962963c-6.637037-23.703704-13.274074-46.459259-19.911111-70.162963H113.777778c7.585185 34.133333 15.17037 68.266667 31.288889 70.162963z m0-331.851852c-16.118519 1.896296-23.703704 36.02963-31.288889 70.162963h11.377778c6.637037-23.703704 13.274074-47.407407 19.911111-70.162963z m475.97037 325.214815l11.377778-5.688889c-22.755556-17.066667-50.251852-29.392593-79.644445-39.822222H483.555556l1.896296 45.511111c53.096296 1.896296 101.451852 1.896296 135.585185 0z m-150.755556-44.562963H362.192593l-1.896297 43.614815c35.081481 0.948148 73.007407 1.896296 109.985185 1.896296v-45.511111z m-121.362962 0h-37.925926c-31.288889 10.42963-49.303704 24.651852-63.525926 37.925926 25.6 1.896296 60.681481 2.844444 98.607407 4.740741l2.844445-42.666667z m272.118518-273.066667c-33.185185-0.948148-82.488889-0.948148-135.585185-0.948148L483.555556 379.259259h69.214814c29.392593-10.42963 56.888889-22.755556 79.644445-39.822222-3.792593-0.948148-7.585185-2.844444-11.377778-4.740741zM470.281481 379.259259v-45.511111c-36.977778 0-73.955556 0.948148-109.985185 1.896296l0.948148 43.614815h109.037037z m-121.362962 0l-2.844445-42.666666c-37.925926 0.948148-73.007407 2.844444-98.607407 4.74074 14.222222 14.222222 32.237037 27.496296 63.525926 37.925926h37.925926z m360.296296-43.614815c-31.288889 18.014815-108.088889 48.355556-146.014815 60.681482 17.066667 70.162963 17.066667 126.103704 0 196.266667 36.977778 11.377778 114.725926 36.02963 146.014815 54.044444 27.496296-83.437037 27.496296-228.503704 0-310.992593z m25.6 263.585186c63.525926-4.740741 115.674074-18.962963 159.288889-39.822223 0-0.948148 0-2.844444 0.948148-3.792592-50.251852 18.014815-103.348148 25.6-158.340741 25.6-0.948148 6.637037-0.948148 12.325926-1.896296 18.014815z m0-207.644445c0.948148 5.688889 0.948148 11.377778 1.896296 17.066667 54.992593 0.948148 108.088889 7.585185 158.340741 25.6 0-0.948148 0-2.844444-0.948148-3.792593-43.614815-19.911111-95.762963-34.133333-159.288889-38.874074zM815.407407 658.962963c14.222222-0.948148 28.444444-3.792593 41.718519-9.481482 18.962963-19.911111 30.340741-45.511111 36.02963-73.955555-25.6 35.081481-52.148148 60.681481-77.748149 83.437037z" fill="#d81e06" p-id="19575"></path></svg>